# xmcd
#
# Track frame offsets: 
#        150
#        13139
#        26819
#        43816
#        59381
#        73305
#        90868
#        111060
#        125078
#        142297
#        159361
#        180782
#
# Disc length: 2590 seconds
#
# Revision: 0
# Processed by: cddbd v1.5.2PL0 Copyright (c) Steve Scherf et al.
# Submitted via: ExactAudioCopy v1.0b3
#
DISCID=a60a1c0c
DTITLE=George Canyon - I Got This
DYEAR=2016
DGENRE=Country
TTITLE0=I Got This
TTITLE1=Daughters of the Sun
TTITLE2=The Hardest Part of Being In Love
TTITLE3=The Way It Was
TTITLE4=The Green Side
TTITLE5=Only the Radio Knows
TTITLE6=Chasing Cars
TTITLE7=Sesame Street
TTITLE8=Some Horses
TTITLE9=Lifetime
TTITLE10=Remember Me
TTITLE11=Footprints (Bonus Track)
EXTD=
EXTT0=
EXTT1=
EXTT2=
EXTT3=
EXTT4=
EXTT5=
EXTT6=
EXTT7=
EXTT8=
EXTT9=
EXTT10=
EXTT11=
PLAYORDER=
